<?xml version="1.0" encoding="utf-8"?>
<!-- Generator: Adobe Illustrator 18.0.0, SVG Export Plug-In . SVG Version: 6.00 Build 0)  -->
<!DOCTYPE svg PUBLIC "-//W3C//DTD SVG 1.1//EN" "http://www.w3.org/Graphics/SVG/1.1/DTD/svg11.dtd">
<svg version="1.1" id="Layer_1" xmlns="http://www.w3.org/2000/svg" xmlns:xlink="http://www.w3.org/1999/xlink" x="0px" y="0px"
	 viewBox="0 0 243.9 215" enable-background="new 0 0 243.9 215" xml:space="preserve">
<path fill="#FFFFFF" d="M236.3,179.3l-47.9-38c-5.9-4.7-13.7-5.5-20.2-2.8l-16.6-13.2C159.4,112.8,164,97.9,164,82
	c0-45.3-36.7-82-82-82S0,36.7,0,82s36.7,82,82,82c22.2,0,42.3-8.8,57-23.1l17.2,13.6c-0.8,6.7,1.7,13.6,7.4,18.1l47.9,38
	c3.7,2.9,8.1,4.3,12.4,4.3c5.9,0,11.7-2.6,15.7-7.6C246.4,198.8,245,186.2,236.3,179.3z M81,155c-40.3,0-73-32.7-73-73S40.7,9,81,9
	s73,32.7,73,73S121.3,155,81,155z"/>
</svg>
